/* XPM */
static char *Screen_Shot_2023_07_31_at_6_02_02_PM__2___1__preview_rev_11690813568[] = {
/* columns rows colors chars-per-pixel */
"32 32 165 2 ",
"   c None",
".  c #6C4C5E",
"X  c #6D4D5E",
"o  c #86625D",
"O  c #87625D",
"+  c #86635D",
"@  c #87635D",
"#  c #87625E",
"$  c #87635E",
"%  c #87635F",
"&  c #88635E",
"*  c #88635F",
"=  c #88645F",
"-  c #8A675F",
";  c #806363",
":  c #886460",
">  c #886560",
",  c #896560",
"<  c #896661",
"1  c #8B6760",
"2  c #8A6662",
"3  c #8A6762",
"4  c #8B6763",
"5  c #8B6862",
"6  c #8D6961",
"7  c #8C6862",
"8  c #8C6963",
"9  c #8C6A63",
"0  c #8B6864",
"q  c #8C6964",
"w  c #8E6C65",
"e  c #8E6C68",
"r  c #8F6E68",
"t  c #906965",
"y  c #936A67",
"u  c #966C6A",
"i  c #9B6F6E",
"p  c #947363",
"a  c #967663",
"s  c #977663",
"d  c #927264",
"f  c #977664",
"g  c #977766",
"h  c #9D7F65",
"j  c #937269",
"k  c #96776E",
"l  c #997A68",
"z  c #9A796D",
"x  c #836870",
"c  c #856B71",
"v  c #947C7C",
"b  c #A57576",
"n  c #98827F",
"m  c #9F897B",
"M  c #A08268",
"N  c #B59D6C",
"B  c #B69E6E",
"V  c #A48576",
"C  c #A68A7B",
"Z  c #A98F7E",
"A  c #B89670",
"S  c #BA9771",
"D  c #BC9971",
"F  c #BD9A71",
"G  c #BD9B72",
"H  c #BE9D72",
"J  c #BF9E72",
"K  c #C6B272",
"L  c #C6B372",
"P  c #D0C075",
"I  c #D1C175",
"U  c #D1C275",
"Y  c #D2C275",
"T  c #D2C178",
"R  c #D2C278",
"E  c #D2C378",
"W  c #D3C378",
"Q  c #D5C67D",
"!  c #D5C77F",
"~  c #BA8287",
"^  c #BA8387",
"/  c #AA9181",
"(  c #AF9886",
")  c #AD9B8F",
"_  c #B19A87",
"`  c #B89C87",
"'  c #B39D88",
"]  c #B49D88",
"[  c #B79D89",
"{  c #B59E8A",
"}  c #BBA18A",
"|  c #B9A58E",
" . c #B6A691",
".. c #B9A793",
"X. c #BDAF9C",
"o. c #BFB29D",
"O. c #C7A880",
"+. c #C6A980",
"@. c #CAAE86",
"#. c #CBAF88",
"$. c #CEB38B",
"%. c #C1AF95",
"&. c #CCB498",
"*. c #CDB498",
"=. c #CDB699",
"-. c #CFB89A",
";. c #C6BAA3",
":. c #CCBDA0",
">. c #C9BEA5",
",. c #D8C69C",
"<. c #DAC89D",
"1. c #E1D89B",
"2. c #E2D99C",
"3. c #CDC0A1",
"4. c #CDC0A2",
"5. c #CDC2A8",
"6. c #D2C3A6",
"7. c #D4C3A4",
"8. c #D5C4A7",
"9. c #DDCEA3",
"0. c #DDC8A6",
"q. c #DEC8A6",
"w. c #DEC9A6",
"e. c #D7CBAA",
"r. c #DFCAAF",
"t. c #D9CFAC",
"y. c #DED0A5",
"u. c #DAD0AD",
"i. c #DFD0AC",
"p. c #DCD2AF",
"a. c #DED8B5",
"s. c #E2CEA8",
"d. c #E3CFAB",
"f. c #E4D0AC",
"g. c #E5D3AE",
"h. c #E5DAB0",
"j. c #E6DBB0",
"k. c #E3DCB6",
"l. c #E4DCB6",
"z. c #E9E1B5",
"x. c #EEEAB7",
"c. c #EBE0B8",
"v. c #EBE1B9",
"b. c #E8E3BB",
"n. c #ECE1B9",
"m. c #ECE2BA",
"M. c #EAE6BD",
"N. c #EEE9B8",
"B. c #EFE8BE",
"V. c #EFE9BE",
"C. c #EFE9BF",
"Z. c #F0EDBF",
"A. c #F1EEC3",
"S. c #F2EFC2",
"D. c #F2EFC4",
"F. c #F2F0C3",
"G. c #F2F0C4",
"H. c #F3F0C5",
"J. c #F3F1C5",
"K. c #F3F1C6",
"L. c #F3F2C6",
"P. c #F4F2C5",
"I. c #F4F2C6",
"U. c #F4F3C6",
"Y. c #F5F3C6",
/* pixels */
"                                                                ",
"                                                                ",
"                                                                ",
"                              , 5 0 , 5 ,                       ",
"                              > , , : : *                       ",
"                        , @ y b b b b b b y @                   ",
"                        , @ i ^ ^ ^ ^ ^ ~ u @ 5                 ",
"                    = = ..4.6.r.r.r.r.r.r.6.3.{ ,               ",
"                    @ @ -.L.L.K.F.K.K.I.I.I.I.%.: @             ",
"                    _ ' p.I.a.o.;.I.F.F.I.4.o.X.' (             ",
"                , = k.I.K.F.o.. x I.K.K.I.v X  .I.u.@ @         ",
"                q , k.K.I.F.>.c n K.K.x.x.m X  .I.u.: @         ",
"                4 , l.K.K.F.I.K.F.F.A.Q Y Y Y 1.K.t.: :         ",
"                w q l.F.K.I.F.K.I.K.F.! W Y W 1.K.t.@ @         ",
"            @ k b.M.A.K.F.F.I.I.F.K.I.Z.Z.Z.A.D.I.t.: @         ",
"            @ j A.K.I.K.I.K.K.F.I.I.F.I.F.I.D.I.K.t.: @         ",
"        @ / e.u.F.K.K.I.K.K.K.K.K.K.F.I.K.K.K.K.F.t.* *         ",
"      r = Z I.I.K.I.F.F.F.F.K.K.F.I.F.K.I.D.F.I.I.u.* *         ",
"      y = C n.n.F.I.I.K.I.K.z.,.9.F.I.K.I.I.D.A.l.7.* *         ",
"      e = V f.f.F.K.F.K.I.F.s.F K K.I.F.D.I.I.l.f.-.= *         ",
"        @ z *.-.j.j.j.j.j.j.0.O.$.A.Z.B.B.B.B.d.&.} @ *         ",
"            @ 9 F F G G G G @.s.d.d.s.f.d.d.d.` @ @             ",
"            = - A S G J K G #.w.0.g.f.s.s.s.q.` @ @             ",
"                9 , L Y L Y N , u L W W W M 2 4                 ",
"                , , L Y Y Y N > d Y Y Y Y h * e                 ",
"                    l f f f d     f f s f                       ",
"                    @ * @ * ,     = * * @                       ",
"                                        =                       ",
"                                                                ",
"                                                                ",
"                                                                ",
"                                                                "
};
