/* XPM */
static char *egg__4__preview_rev_11690813808[] = {
/* columns rows colors chars-per-pixel */
"32 32 60 1 ",
"  c None",
". c #87625E",
"X c #87635E",
"o c #88645F",
"O c #88655F",
"+ c #896560",
"@ c #8A6660",
"# c #8A6661",
"$ c #8A6761",
"% c #8B6861",
"& c #8B6862",
"* c #8B6863",
"= c #8C6963",
"- c #8D6B64",
"; c #8D6B67",
": c #8F6D65",
"> c #8E6D67",
", c #8D6C68",
"< c #8F6D69",
"1 c #8F6E69",
"2 c #906F67",
"3 c #91716D",
"4 c #937370",
"5 c #947570",
"6 c #957671",
"7 c #977A77",
"8 c #9B7E7C",
"9 c #D1BA9D",
"0 c #D4BE9F",
"q c #D9C4A3",
"w c #DAC6A5",
"e c #DDC8A6",
"r c #DECBA8",
"t c #DED5B1",
"y c #DED5B2",
"u c #E3CFAB",
"i c #E4D1AD",
"p c #E5D2AD",
"a c #E5D3AF",
"s c #E1D9B4",
"d c #E2DAB5",
"f c #E5DFB8",
"g c #E8E2BA",
"h c #E9E4BC",
"j c #ECE6BE",
"k c #ECE8BF",
"l c #D4D1D7",
"z c #D6D3D9",
"x c #D6D4DA",
"c c #D8D6DD",
"v c #D8D7DE",
"b c #D9D7DF",
"n c #D9D8DF",
"m c #D9D9DF",
"M c #EEEAC0",
"N c #F1EDC2",
"B c #F2EEC3",
"V c #F2EFC4",
"C c #F3F0C4",
"Z c #F3F1C5",
/* pixels */
"            XXooXXX$            ",
"            X$ooooo;            ",
"            XXooooo;            ",
"            X$$o$$$:            ",
"        XXX$yffffffs&oo.        ",
"        X+X$gZZZVVZM2oo.        ",
"        XX$$hZZZZZZM-ooo        ",
"        X$$:hZZZZZZM2$$o        ",
"    XXXoygggVZZZZZVVwqq9oXXX    ",
"    Xoo$gZZZZZZZZZZViuuq$ooX    ",
"    Xoo$gZZZZZZZZZZViuuq$ooX    ",
"    Xoo$gZZZZZZZZZZViuuq$ooX    ",
"    Xoo$gZZZZZZZZZZViuuq$ooX    ",
"    Xoo$gZZZZZZZZZZViuuq$ooX    ",
"    Xoo$gZZZZZZZZZZViuuq$ooX    ",
"    Xoo$gZZZZZZZZZZVuuuq$ooX    ",
"    ooo$gZZZZZZZZZZViuuq&oo.    ",
"    Xoo$gZZZZZZZZZZViuuq&ooo    ",
"    Xoo$gZZZZZZZZZZViuuq$ooo    ",
"    Xoo$gZZZZZZZVVVBiuuq+ooo    ",
"nnnv4++$gZZZZZZCaiiiuuuq$oo4vnnn",
"nnnv3oo$gZZZZZZCiuuuuuuq$oo4vnnn",
"nnnv4$o&gZZZZZZBiuuuuuuq$oo4vnnn",
"nnnv7;;2dkkkkkkjuwweeee0,;,7vnnn",
"nnnnxzzz62----;-&&-&&-;3zzzxnnnn",
"nnnnnnvc3ooooooo+oooooo3vvnnnnnn",
"nnnnnnvv3ooooooooo$ooo$3vvvnnnnn",
"vnnnnvvv8444344444444348vvbnnnnb",
"    nnnnvvvvvvvvvvvvvvvvnnnn    ",
"    nnnnnnnnnnnnbbnbnnnnnnnn    ",
"    nnnnnnnnnnnnnnnnnnnnnnnn    ",
"    nnnnnnnnnnnnnnnnnnnnnnnb    "
};
