/* XPM */
static char *_b579ac608fd4e97af06fbc748f2f4c2NbsMP9d5hMSU1hCG[] = {
/* columns rows colors chars-per-pixel */
"64 64 57 1 ",
"  c #C0D470",
". c #C1D470",
"X c #C1D570",
"o c #BFD470",
"O c #BFD370",
"+ c #BED36F",
"@ c #BDD26E",
"# c #BBD16E",
"$ c #BCD16E",
"% c #BDD26F",
"& c #BFD36F",
"* c #BCD26E",
"= c #B9CF6D",
"- c #B6CD6B",
"; c #B5CD6B",
": c #B6CE6B",
"> c #B9D06D",
", c #C1D571",
"< c #BAD06D",
"1 c #B4CC6B",
"2 c #B0CA69",
"3 c #AEC968",
"4 c #B1CA69",
"5 c #B7CE6C",
"6 c #ACC767",
"7 c #AAC666",
"8 c #ADC867",
"9 c #B3CC6A",
"0 c #B0C968",
"q c #ACC766",
"w c #ABC666",
"e c #AEC868",
"r c #B4CC6A",
"t c #B2CB6A",
"y c #B0CA68",
"u c #AFC968",
"i c #B2CB69",
"p c #B6CE6C",
"a c #B1CB69",
"s c #B8CF6C",
"d c #ABC766",
"f c #AEC867",
"g c #A9C565",
"h c #A8C565",
"j c #A7C464",
"k c #A6C464",
"l c #A6C364",
"z c #C2D571",
"x c #A7C465",
"c c #A9C666",
"v c #BBD06D",
"b c #B7CF6C",
"n c #B3CB6A",
"m c #BED26F",
"M c #A5C364",
"N c #A8C465",
"B c white",
/* pixels */
"                                                                ",
"                                                                ",
"                                                                ",
"                                                                ",
"                                                                ",
"                                                                ",
"                                                                ",
"                                                                ",
"                                                   .XX..        ",
"                                                    ...         ",
"                                                   oOOOo        ",
"                                                  +@##$%&       ",
"                                              .X.O*=-;:>@O      ",
"                                              X,.+<1234-#& .    ",
"                                              .. @546789<+ X.   ",
"                                             oO+@<;0qwer<+ X    ",
"                                             +*<5;ty3uip#& .    ",
"                                          .. %>;ayy49;s<%O      ",
"                                          ..o$p26det5#%+O       ",
"                                          XXo#;fgh69<+ .        ",
"                                          XXo#r6jjd9# ,,.       ",
"                 .XX.                     XXo#96kld9# zz.       ",
"                                          XXo#r6xj69<oX,.       ",
"                oO&&&O                    XXo#;3cg8r#O.X        ",
"               O%$<<#%&                   ..o*5af84:$O..        ",
"               +v5rr-<% XX.                  %<:99->%o .        ",
"            .. %st3f4:$ ,,.                  &@#>><*+           ",
"            .X *52d7f9<+                      O++++&            ",
"            .. @546d8i5<@+O                                     ",
"            .. %<;auu49;5<%O               ..XXXXX.             ",
"               &@<b;n2uui:#+ .             .XXXX..              ",
"                O+%<-2678t=+ X.                                 ",
"                .X %5y7j72sm X.          o+%@%m&o               ",
"                ,zX+5uglgu5% X.       .. +#=55>$&               ",
"                ,zX+5uhlhu5% ,.      .,, @s944;>% ..            ",
"                X, %50gj72sm X.      .X.O#;u6645@ ..            ",
"                .X %s4qg6is+ X.        &@st87d25* X.            ",
"                .. +<12e2;<+ .      o+*<s;4e83ns% ..            ",
"                   &$s;1-=$&      . &$s;t444tr5#+               ",
"                   o+*#<#*+o     .. +<1u882rs<*+O               ",
"                    oO&&&O       .X +sadgw2p$&                  ",
"                                 .X %5ygkg05m.,X                ",
"                     .XXX.       ., %5uhMhu5+Xz,                ",
"                                 .X %5uglgu5m.,X                ",
"                                 .X ms47N725% X.                ",
"                                 .X +>9fd8t=+ X.                ",
"                                  . &#pn4t:#+ .                 ",
"                                    O%<s5s<%O                   ",
"                                     &+%*%+&                    ",
"                                                                ",
"                                      ..X..                     ",
"                                       ...                      ",
"                                                                ",
"                                                                ",
"                                                                ",
"                                                                ",
"                                                                ",
"                                                                ",
"                                                                ",
"                                                                ",
"                                                                ",
"                                                                ",
"                                                                ",
"                                                                "
};
