/* XPM */
static char *Screen_Shot_2023_07_31_at_6_36_11_PM_preview_rev_1__1_1690814087[] = {
/* columns rows colors chars-per-pixel */
"64 64 173 2 ",
"   c None",
".  c #74535F",
"X  c #79575F",
"o  c #7D5A5F",
"O  c #745461",
"+  c #795760",
"@  c #775967",
"#  c #7D5C61",
"$  c #7B5D6B",
"%  c #7E616E",
"&  c #787E65",
"*  c #815F5F",
"=  c #86635F",
"-  c #89645F",
";  c #8E695F",
":  c #916C5E",
">  c #9D775F",
",  c #9F795F",
"<  c #805E61",
"1  c #846363",
"2  c #886663",
"3  c #8D6B64",
"4  c #82646B",
"5  c #8B6C6B",
"6  c #916E64",
"7  c #906F69",
"8  c #8E7F66",
"9  c #947166",
"0  c #997563",
"q  c #9C7963",
"w  c #93726A",
"e  c #99776A",
"r  c #917F69",
"t  c #9D7B6C",
"y  c #866973",
"u  c #896D75",
"i  c #8A6F79",
"p  c #8D737C",
"a  c #8F787E",
"s  c #977B76",
"d  c #9E7D70",
"f  c #90777F",
"g  c #A37E63",
"h  c #A07E6C",
"j  c #A07F71",
"k  c #758063",
"l  c #9A855F",
"z  c #938E5F",
"x  c #9C8362",
"c  c #988A66",
"v  c #859F61",
"b  c #899D65",
"n  c #889463",
"m  c #979260",
"M  c #989361",
"N  c #999D64",
"B  c #879975",
"V  c #86967B",
"C  c #8C9C7B",
"Z  c #869574",
"A  c #909776",
"S  c #A68264",
"D  c #A98464",
"F  c #A38862",
"G  c #AE8967",
"H  c #A4826E",
"J  c #AC8A6D",
"K  c #B18D69",
"L  c #A49263",
"P  c #A99566",
"I  c #A29A65",
"U  c #A19868",
"Y  c #AE986E",
"T  c #A49569",
"R  c #B5926D",
"E  c #B9966F",
"W  c #A48473",
"Q  c #A88672",
"!  c #AC8B75",
"~  c #A6897F",
"^  c #AB8C7A",
"/  c #A48578",
"(  c #B08F75",
")  c #AF927B",
"_  c #B59374",
"`  c #B99771",
"'  c #B59D74",
"]  c #BD9B72",
"[  c #B2937A",
"{  c #B89778",
"}  c #B69A7B",
"|  c #BB9C7E",
" . c #85A261",
".. c #8BA464",
"X. c #8EA965",
"o. c #90A567",
"O. c #92AC66",
"+. c #9BA967",
"@. c #94A66A",
"#. c #98A66C",
"$. c #95AE68",
"%. c #9DAC6E",
"&. c #9AB369",
"*. c #A0AC6F",
"=. c #ACAD6B",
"-. c #AAB36C",
";. c #A4BA6D",
":. c #A9BE6E",
">. c #B2B36F",
",. c #A5AA74",
"<. c #A9AC77",
"1. c #B7A175",
"2. c #B7AD72",
"3. c #BFA47F",
"4. c #B4AF7D",
"5. c #BAAF7E",
"6. c #A7BC70",
"7. c #AABD71",
"8. c #B9B573",
"9. c #B6B07E",
"0. c #B8B973",
"q. c #C5A57C",
"w. c #ABC06F",
"e. c #ADC271",
"r. c #B2C574",
"t. c #B6C875",
"y. c #B9CA77",
"u. c #BBCB78",
"i. c #BAC075",
"p. c #C1CE7B",
"a. c #C4D27D",
"s. c #887080",
"d. c #917780",
"f. c #927A81",
"g. c #9F878B",
"h. c #A68A80",
"j. c #A98D84",
"k. c #A68D8A",
"l. c #A88E89",
"z. c #AD9287",
"x. c #B29685",
"c. c #B79A82",
"v. c #BC9D81",
"b. c #BEA082",
"n. c #BDB282",
"m. c #C3A584",
"M. c #C6A984",
"N. c #C8AB87",
"B. c #C1A588",
"V. c #CAAE89",
"C. c #C3B485",
"Z. c #C7B688",
"A. c #CDB48B",
"S. c #CDB88B",
"D. c #D2B58D",
"F. c #D4B98F",
"G. c #CEB492",
"H. c #D0B795",
"J. c #D7BB90",
"K. c #D9BC93",
"L. c #D3BB9A",
"P. c #DAC29C",
"I. c #DDC6A1",
"U. c #DEC9A5",
"Y. c #DFCBA8",
"T. c #E1CBA5",
"R. c #E1CDAA",
"E. c #E4D1AE",
"W. c #E6D4B2",
"Q. c #E8D8B6",
"!. c #EBDCBB",
"~. c #EDE0BF",
"^. c #EDE0C0",
/* pixels */
"                                                                                                                                ",
"                                                                                                                                ",
"                                                                                                                                ",
"                                                        / W h j d d j W                                                         ",
"                                                l.j.k.k.c.| | | | | v.c.l.k.j.j.                                                ",
"                                          ~ l.z.x.( ( [ D.K.K.K.K.K.K.D.[ ( ( x.z.l.~                                           ",
"                                        ) H W H M.K.K.F.n.5.9.9.5.5.4.n.J.K.K.N.W H H [                                         ",
"                                  ! e e } J.J.J.A.C.C.C.%.....X...X.X.+.C.C.C.Z.J.J.K.b.e e ^ /                                 ",
"                          H h w ! D.D.F.A.S.A.S.,..... .r.r.:.:.:.:.r.t... ...&.S.S.A.F.S.F.F.) w 9 Q                           ",
"                  W h j / V.V.V.A.F.H.F.4...o.o.&.&.O. .r.y.:.:.w.w.r.y. .X.&.&.o.o.o.<.F.F.F.A.V.V.V.^ / t H                   ",
"                H v.m.m.M.K.K.K.C.#.#.+.....r.r.e.;.O. .;.:.&.&.&.&.;.7. .O.;.e.e.w.O. .#.#.$.9.K.K.J.N.m.m.3.Q                 ",
"                H A.K.K.A.,.,.,.%.&.&.O. .O.a.a.r.;.$. .7.e.;.;.;.;.e.e...O.&.r.u.P.&. .X.&.&.&.,.,.<.C.K.J.F.Q                 ",
"                t m.5.4.<... .X.:.t.w.&...O.r.y.r.;.O. .r.y.e.w.w.:.t.u. .X.;.w.u.u.&. .&.w.y.w.$.v  .,.4.5.M.H                 ",
"                > J n  .X.O. .7.a.a.w.&.....r.r.r.;.O. .e.r.;.;.:.;.e.r. .O.;.w.r.r.O. .&.w.a.a.r.v O.X. .n J q                 ",
"                  r & b :.$. .:.a.u.w.&...O.a.a.r.;.O. .;.;.&.&.$.$.;.w. .O.&.r.u.a.&. .&.w.y.u.e. .O.:.o.k 8                   ",
"                    Z v :.$. .&.r.w.w.&...O.p.a.r.;.O. .r.t.;.:.:.:.r.t...X.;.r.a.a.&.X.&.w.w.e.&. .O.;...V                     ",
"                    C b :.$. .:.u.u.w.&.X.X.e.r.w.;.O. .r.y.:.:.w.e.t.y. .X.;.w.e.r.O. .&.w.y.y.e. .$.:.o.B                     ",
"                    C b :.$. .:.a.a.w.&.X.X.u.u.r.;.O. .I P L L L F P I  .O.;.r.u.u.O.X.&.w.u.P.r. .O.;.o.B                     ",
"                    C b :.$. .:.y.t.w.&...X.a.a.>.I M z } m.b.m.m.m.m.| m z I =.a.a.O. .&.w.t.y.6. .O.:.o.B                     ",
"                    C b ;.O. .&.t.r.w.&...N 8.0.1._ { { U.Q.Q.Q.Q.W.Q.R.{ { { 1.0.0.+. .&.w.r.r.;. .O.;...B                     ",
"                    C b :.$. .7.p.i.-.+.I J J J H.W.E.W.Q.!.!.!.!.!.!.!.W.E.W.L.P K G T +.-.i.u.e. .O.;...B                     ",
"                    C b ;.+.v 6.8.G D S m.T.R.T.Q.~.^.!.I.K.K.K.K.K.K.P.!.!.~.Q.T.T.Y.A.S D G 2.7. .O.;.o.C                     ",
"                    A b -.F , F | P.P.P.E.~.^.^.R.P.K.P.K.J.J.J.J.J.J.J.P.P.P.T.^.^.^.W.P.P.L.m.D x F =.o.V                     ",
"                  x.c l Y A.H.H.I.^.~.~.W.T.I.I.K.K.K.F.^ t h h t t t ! D.J.F.K.I.I.I.W.^.^.^.U.H.G.G.' x x )                   ",
"                { B.M.B.G.Q.!.!.Q.Y.E.R.P.K.J.J.| ! ! ! 6 = = = 1 - = 3 Q ! ! | F.F.J.P.R.R.R.W.!.~.!.H.M.M.B.|                 ",
"                v.E.Q.Q.Q.W.Q.W.Y.F.J.F.N.| | | e = = = - = = - - - - - = - = 9 | | | m.J.J.F.T.W.W.W.Q.Q.Q.E.B.                ",
"                [ W.!.!.W.K.K.K.A.M.M.M.Q - - - - - - - - - - - = - - - - - = = - - = h M.m.m.A.K.K.K.R.!.!.Q.|                 ",
"                S A.K.K.K.V.V.A.} ; 3 3 : - - - ; - - - ; - - - - - - ; - ; - - ; - - ; : 6 : ( V.D.A.H.K.K.F.!                 ",
"                H V.J.H.m.e 9 9 0 , g > , , , , , , , , , , , , , , , , , , , , , , , , , , , 0 9 9 6 m.F.F.A.!                 ",
"                  ! e t t g J K R R R E R R E E E R R E R E E E R E R E R E R R E E R R R R E R K J g t e t ^                   ",
"                      k.= R ] ] ] ] ] ] ] ] ] ] ] ] ] ] ] ] ] ] ] ] ] ] ] ] ] ] ] ] ] ] ] ] ] ] ] ] E 2 f.s                     ",
"                      f.# G K K K K K K K K K K K K K K K K K K K K K K R K K K K K R K K K K K K K K * d.                      ",
"                      f.X S D D D g D D S S D D D D D D S S D D D D D D D D D D S D D D D D g D D D g * d.                      ",
"                      d.< ` ] ] ] ] ] ] ] ] ] ] ] ] ] ] ] ] ] ] ] ] ] ] ] ] ] E ] ] E ] ] ] ] ] ] ] E 2 d.                      ",
"                      d.< ` ] ] ] ] ` ` ] ] ] ] ] ] ] ] ] ] ] ] ] ] ] ] ] ] ] ] ] ] ] ] E ] ` ] ] ] ] 2 f                       ",
"                      d.< ` ] ] H < < < t ] ] ] ] ] ] ] ] ] ] ] ] ] ] ] ] ] ] ] ] ] ] H < < # h ] ] ] 2 f                       ",
"                      d.o D D 0 2 * o < 1 9 D D D D D G 9 2 2 2 5 3 2 6 D D D D D D e 1 o * o 1 e D D < d.                      ",
"                      s.o D K 1 . = = = + # G G K G D ; o X + # X + + o ; S K K K K < X = = = X < D G < f                       ",
"                      d.< ] ] 3 X = = 2 + 1 ] ] ] R q # = = - - = = - = X e K ] ] ] 2 X = = = X 2 ] ] 1 f                       ",
"                      f * ] 1.3 X : 6 6 # 1 ` ] ] h . = - - = - = = - = = X e ] ] ] 2 o 6 6 6 # 1 ] ] 2 p                       ",
"                      p o ` E 6 2 ] ` ] e < ` ] ] h . = = - - = 2 = - - 2 . 9 ] ] E 3 6 ] ] ] 9 2 E E = a                       ",
"                      p X g D , J D.D.D._ > g g S 6 . * - = - - = - - = = . 2 S D g q K D.D.D._ > S S o p                       ",
"                      i o K R R ] q.q.q.] R R R R q . = - - - = = - - - = . 9 R R R K ] q.q.q.] R R R 1 p                       ",
"                      y % E ] ] ] ] ] ] ] ] ] ] ] t . 2 - = - - - - - = = . e ] ] ] ] ] ] ] ] ] ] ] ] 1 i                       ",
"                      y # ` ] ] ] ] ] ] ] ] ] ] ] h O = : : : : : : : : = . e ] ] ] ] ] ] ] ] ] ] ] ] 2 u                       ",
"                        w J J Q G Q ! J K K J J ! 7 . - , D S S D S D g : . 5 J J J J J J J J J G J Q e                         ",
"                          5 % @ O + @ O @ % % % 4 % < q R ] E ] E ] ] R , 4 $ 4 4 % % @ O X O O @ % 5                           ",
"                              y < D S # y             9 K R J K K K R R 6             $ + H D 1 i                               ",
"                              a 2 E E 1 p             w K ] ` E ` E ` K 5               # E ` 3 i                               ",
"                              p 2 ] ] 1 u             7 J ` R R R R ` R 6               + ` ] 6 p                               ",
"                              i 2 ] E = y             w K ` K R R R E R 6               # ` ] 9 p                               ",
"                              u 1 ] ` % y             7 K ] E E E E ] _ 3               # ` ] 9 i                               ",
"                              y 1 ] ] 1 4             w ! E K K K K R R 6               # ` ] 6 y                               ",
"                              y 5 ` ` 2               7 J ] ] E E ] ` R 3               3 _ ` w u                               ",
"                                  : :                 7 K E K K K K E R 9                 : 9 1                                 ",
"                                                      w K { E E E E ` R 3                                                       ",
"                                                      w K E R R R R E R 3                                                       ",
"                                                      5 J E R R K R E R 3                                                       ",
"                                                      t ! R ( K R _ K ! t                                                       ",
"                                                        t w e w w w w d                                                         ",
"                                                                                                                                ",
"                                                                                                                                ",
"                                                                                                                                ",
"                                                                                                                                "
};
