/* XPM */
static char *_3176fe44ab9490bd312912802122abdCU5dbmAUQ6FiDC9q[] = {
/* columns rows colors chars-per-pixel */
"64 64 45 1 ",
"  c #9BD4C3",
". c #9AD4C3",
"X c #9DD5C3",
"o c #A1D7C2",
"O c #A7DAC0",
"+ c #ACDEBF",
"@ c #B1E0BE",
"# c #B3E1BE",
"$ c #B2E1BE",
"% c #A6DAC0",
"& c #ACDDBF",
"* c #B0DFBE",
"= c #B2E0BE",
"- c #A0D7C2",
"; c #A5D9C1",
": c #AADCC0",
"> c #ADDEBF",
", c #AFDFBE",
"< c #AFDFBF",
"1 c #9CD5C3",
"2 c #9FD6C2",
"3 c #A3D8C1",
"4 c #A9DCC0",
"5 c #ABDDBF",
"6 c #AADCBF",
"7 c #9CD4C3",
"8 c #9ED5C2",
"9 c #A4D9C1",
"0 c #A5DAC1",
"q c #9DD5C2",
"w c #A0D6C2",
"e c #9ED6C2",
"r c #A7DBC0",
"t c #A6DAC1",
"y c #A2D8C1",
"u c #A8DBC0",
"i c #AEDFBF",
"p c #AEDEBF",
"a c #A9DBC0",
"s c #A2D8C2",
"d c #A3D9C1",
"f c #ABDCBF",
"g c #A1D8C2",
"h c #9AD3C3",
"j c white",
/* pixels */
"                                                  .. XoO+@###$$$",
"                                                  .. Xo%&*@=@@@@",
"                                                   . X-;:>,,,<<<",
"                                                   . 123O45556::",
"                              ............           78-390000;;",
"                                                      1q22------",
"                             7111XXX1XXX117             77111111",
"                            1q2-oooooooooweX7            .......",
"                            X-3;%rOOOOrOt9oe1           ........",
"                         . 7ey%:&&&&&&&&5u9-X .                 ",
"                         ..7e3u&i,,<<,,,>:toX ..                ",
"                         ..7eyO5>pp>>>p>&4;-X .                 ",
"                            q-9Ou44aua44uty21                   ",
"                            1e-y33333333yo2q7                   ",
"                             1Xq888888888X17                    ",
"                                                                ",
"...........                   ............                      ",
"............                   ..........                       ",
"                                                                ",
"XXXXXXXXqqXX17                                                  ",
"yyyyyyyyyyyo2q7                                                 ",
"uuuuuuuuuur0y21                                                 ",
">>>>>>>>>>&40oX .                                               ",
"<<<<<<<,,,p5%oq ..                                              ",
"&&&&&&&>>>&4;oX .                                               ",
"rrrrrrruuuO;y21                                                 ",
"sssssssyyyo-2X7                                                 ",
"XXXXXXXXXXXX17                                                  ",
"                                                                ",
"............                            ..............          ",
"...........                            ................         ",
"                                                                ",
"                                     7Xq8eeeeeeeeeeee8X17       ",
"                                    7q2o33d33333333d3yo2X7      ",
"                                  . 12ytu444444444444u0ye1      ",
"                                  . X-;4&ppp>>>>>>ppp&u9w1 .    ",
"                                  . X-0:>,,,iiiiii,,<>4;-1 .    ",
"                                  . 1-9uf&&&&5555&&&&:r321 .    ",
"                  .......           1eo9t%O%%%%%%%%O%03-e7      ",
"                    ...              Xe2-ooo------ooo-281       ",
"                 711111177            711111111111111117        ",
"               7Xe2-----281                                     ",
"               X2s9t%O%0doe1           ................         ",
"             . qo;a5&&&:r9w1 .                                  ",
"            .. 8yO5p,*,>:0-X .                                  ",
"            .. 8y%6>i<p&4;-X .                                  ",
"               X-9O4:::uty21 .                           .......",
"               1e-y39993g2q7                            ........",
"                1X8eeeeeqX7                                     ",
"                                                      71Xq888888",
"                  .......        .......             7X2oy333333",
"                  .......     ............           12y0ua4auuu",
"                                                   . 1-9a&>p>>>>",
"                             711XXXXXXXXX117       . 1-;:>,,,<ii",
"                            182-ooooooooo-eX7      . 129u5&&&&&&",
"                            X-30Orrrrrrr%9g21        7eo9tOrOOOO",
"                         . 7ey%:&>>&&&>+5u9-X .       Xe2-oooooo",
"                         ..7e3u&i,,<<,,,p:toX ..       711XXXX11",
"                         ..7eyO:>>>>>>>>&4;-X .                 ",
"                            q-d%uuuuuuuur;y21           ........",
"                            1e-oyyyyyyyyyo2X7                   ",
"                             1XXq88qqq8qqX17                    ",
"                                                                ",
"                             ..hhhhhhhhhhh.                     "
};
